<svg version="1.1" id="Layer_2" xmlns="http://www.w3.org/2000/svg" xmlns:xlink="http://www.w3.org/1999/xlink" x="0px" y="0px" viewBox="0 0 1234.71 376.93" style="enable-background:new 0 0 1234.71 376.93;" xml:space="preserve">
<style type="text/css">.st0{fill:#FFFFFF;}</style>
<g>
	<path class="st0" d="M227.41,58.04c4.23,4.19,9.1,9.48,13.99,15.29c61.02-5.74,102.32-0.12,107.82,17.27
		c6.2,19.59-24.92,48.31-81.03,79.45C260.88,73.91,173.87-0.77,65.57,0.01C42.75,0.17,20.7,3.68,0,10.01
		c11.04-1.88,22.4-2.82,34-2.72c103.59,0.9,187.05,84.03,187.88,186.34c-41.84,19.71-92.02,39.7-147.68,58.41
		c-23.27,7.82-54.67,19.47-69.38,27.4c-0.25,0.22-0.5,0.43-0.75,0.64c1.59-0.4,3.18-0.8,4.77-1.2c24.75-6.25,50.19-13,76.04-20.63
		c49.16-14.52,94.92-29.85,136.2-45.4c-7.48,79.5-64.84,144.43-140.53,164.08c101.19-11.61,181.93-88.79,187.81-182.79
		c115.32-48.02,184.14-95.79,174.63-125.85C434.59,41.76,349.81,36.85,227.41,58.04z M911.63,215.36h-44.55v-19.69h41.51v-13.16
		h-41.51v-18.79h43.54v-13.5h-58.84v78.75h59.85V215.36z M636.88,262.93c-24.98,0-41.51,16.43-41.51,41.18
		c0,24.75,16.54,41.18,41.51,41.18c24.86,0,41.4-16.43,41.4-41.18C678.28,279.36,661.74,262.93,636.88,262.93z M636.88,331.11
		c-15.41,0-25.76-10.91-25.76-27c0-16.09,10.35-27,25.76-27c15.3,0,25.65,10.91,25.65,27C662.53,320.2,652.18,331.11,636.88,331.11z
		 M558.57,150.22h-37.01v78.75h15.53v-23.06h21.49c17.89,0,29.36-10.91,29.36-27.9C587.94,161.13,576.46,150.22,558.57,150.22z
		 M557.9,191.96h-20.93v-27.68h20.93c8.77,0,14.4,5.4,14.4,13.84C572.3,186.56,566.67,191.96,557.9,191.96z M539,114.46h15.64v-64.8
		h24.86V35.71h-65.37v13.95H539V114.46z M747.8,100.85h-44.55V81.16h41.51V67.99h-41.51V49.21h43.54v-13.5h-58.84v78.75h59.85
		V100.85z M612.57,81.61h37.58v32.85h15.53V35.71h-15.53v31.61h-37.58V35.71h-15.53v78.75h15.53V81.61z M551.15,296.57
		c-12.26-1.57-17.32-4.61-17.32-10.35c0-5.74,6.75-9.79,16.54-9.79c7.42,0,15.08,2.47,21.38,7.09l7.65-11.03
		c-8.1-5.96-18.79-9.45-29.48-9.45c-18.56,0-31.39,9.56-31.39,23.4c0,14.06,9.34,21.26,30.83,23.85
		c12.38,1.46,17.89,4.61,17.89,10.58c0,6.3-6.64,10.24-17.1,10.24c-9.45,0-18.79-3.15-25.43-8.55l-8.1,11.59
		c8.89,7.09,21.26,11.03,33.53,11.03c19.58,0,32.63-9.79,32.63-24.53C582.76,306.92,572.97,299.5,551.15,296.57z M734.42,331.11
		c-15.64,0-26.33-10.91-26.33-27c0-16.09,10.69-27,26.33-27c7.65,0,13.95,2.59,19.12,7.76l10.01-9.56
		c-7.99-8.1-18-12.26-29.59-12.26c-24.41,0-41.63,16.65-41.63,41.06c0,24.19,16.88,41.06,41.85,41.06
		c11.93,0,22.05-3.94,30.15-11.93l-9.45-10.35C749.49,328.19,742.18,331.11,734.42,331.11z M1022.89,150.19l-33.12,78.75h16.7
		l6-15.04l0.14-0.36h37.35l0.13,0.36l6,15.04h16.81l-33.01-78.75H1022.89z M1044.96,200.22h-27.28l0.18-0.47l13.46-33.76
		l13.46,33.76L1044.96,200.22z M992.13,150.22h-65.36v13.95h24.86v64.8h15.64v-64.8h24.86V150.22z M1016.69,297.36l-20.48-32.63
		h-18.45l30.94,47.48v31.28h15.64V312.1l31.84-47.36h-18.68L1016.69,297.36z M1216.03,150.22l-20.81,32.63l-20.48-32.63h-18.45
		l30.94,47.48v31.28h15.64v-31.39l31.84-47.36H1216.03z M1150.31,176.55c0-15.75-11.03-26.33-28.13-26.33h-37.46v78.75h15.53v-26.44
		h13.61l21.49,26.44h19.01l-23.29-27.56C1143.22,198.26,1150.31,189.15,1150.31,176.55z M1100.13,189.15v-25.09h21.04
		c8.66,0,13.73,4.73,13.73,12.6c0,7.88-5.06,12.49-13.73,12.49H1100.13z M784.59,343.49h15.53v-78.75h-15.53V343.49z M840.51,310.19
		h41.51v-13.16h-41.51v-18.79h43.54v-13.5h-58.84v78.75h59.85v-13.61h-44.55V310.19z M831.68,150.22h-15.52v30.49l0.11,22.39
		l-39.38-52.88h-13.95v78.75h15.53v-29.36l-0.22-23.4l39.38,52.76h14.06V150.22z M900.92,278.69h24.86v64.8h15.64v-64.8h24.86
		v-13.95h-65.37V278.69z M727.5,213.9l6,15.04h16.81l-33.01-78.75h-16.99l-33.12,78.75h16.7l6-15.04l0.14-0.36h37.35L727.5,213.9z
		 M695.1,200.22l0.18-0.47l13.46-33.76l13.46,33.76l0.18,0.47H695.1z M602.47,150.22v78.75h54.18v-14.29h-38.66v-64.47H602.47z"/>
</g>
</svg>
