<svg version="1.1" id="Layer_2" xmlns="http://www.w3.org/2000/svg" xmlns:xlink="http://www.w3.org/1999/xlink" x="0px" y="0px" viewBox="0 0 758.94 644.51" style="enable-background:new 0 0 758.94 644.51;" xml:space="preserve">
<style type="text/css">.st0{fill:#FFFFFF;}</style>
<g>
	<path class="st0" d="M757.45,116.76C743.1,71.41,598.15,63,388.85,99.24c7.24,7.17,15.56,16.21,23.92,26.14
		c104.34-9.81,174.95-0.21,184.36,29.53c10.6,33.5-42.6,82.6-138.53,135.84C446.1,126.37,297.31-1.32,112.11,0.01
		C73.09,0.29,35.4,6.3,0,17.12c18.88-3.22,38.31-4.83,58.14-4.65c177.14,1.53,319.83,143.68,321.25,318.62
		c-71.53,33.7-157.35,67.89-252.51,99.87C87.09,444.33,33.4,464.25,8.23,477.81c-0.43,0.37-0.86,0.73-1.29,1.1
		c2.71-0.68,5.43-1.37,8.15-2.06c42.31-10.69,85.82-22.23,130.02-35.28c84.05-24.82,162.3-51.04,232.89-77.63
		c-12.78,135.93-110.87,246.96-240.3,280.56c173.03-19.86,311.09-151.82,321.14-312.55C656.03,249.85,773.71,168.17,757.45,116.76z"
		/>
</g>
</svg>
